HIERARCHY
ROOT mixamorig:Hips
{
	OFFSET 0.000000 201.639420 0.000000
	CHANNELS 6 Xposition Yposition Zposition Xrotation Yrotation Zrotation
	JOINT mixamorig:Spine
	{
		OFFSET 0.006200 19.524994 -2.481800
		CHANNELS 3 Xrotation Yrotation Zrotation
		JOINT mixamorig:Spine1
		{
			OFFSET -0.000900 22.835007 -2.825400
			CHANNELS 3 Xrotation Yrotation Zrotation
			JOINT mixamorig:Spine2
			{
				OFFSET -0.020600 26.552490 -3.193300
				CHANNELS 3 Xrotation Yrotation Zrotation
				JOINT mixamorig:Neck
				{
					OFFSET -0.060000 30.701813 1.352200
					CHANNELS 3 Xrotation Yrotation Zrotation
					JOINT mixamorig:Head
					{
						OFFSET -0.087200 22.547607 3.670900
						CHANNELS 3 Xrotation Yrotation Zrotation
						JOINT mixamorig:HeadTop_End
						{
							OFFSET -0.830600 40.355194 7.893500
							CHANNELS 3 Xrotation Yrotation Zrotation
							End Site
							{
								OFFSET 0.000000 30.592346 0.000000
							}
						}
						JOINT mixamorig:RightEye
						{
							OFFSET -6.302100 18.118591 16.197100
							CHANNELS 3 Xrotation Yrotation Zrotation
							End Site
							{
								OFFSET 0.000000 30.592346 0.000000
							}
						}
						JOINT mixamorig:LeftEye
						{
							OFFSET 6.741500 18.382690 16.401899
							CHANNELS 3 Xrotation Yrotation Zrotation
							End Site
							{
								OFFSET 0.000000 30.592346 0.000000
							}
						}
					}
				}
				JOINT mixamorig:LeftShoulder
				{
					OFFSET 11.924900 18.230499 1.425400
					CHANNELS 3 Xrotation Yrotation Zrotation
					JOINT mixamorig:LeftArm
					{
						OFFSET 25.435989 -0.697632 -5.229300
						CHANNELS 3 Xrotation Yrotation Zrotation
						JOINT mixamorig:LeftForeArm
						{
							OFFSET 54.684776 0.000000 0.000000
							CHANNELS 3 Xrotation Yrotation Zrotation
							JOINT mixamorig:LeftHand
							{
								OFFSET 55.098175 0.000000 0.000000
								CHANNELS 3 Xrotation Yrotation Zrotation
								JOINT mixamorig:LeftHandMiddle1
								{
									OFFSET 23.369751 0.000000 0.000000
									CHANNELS 3 Xrotation Yrotation Zrotation
									JOINT mixamorig:LeftHandMiddle2
									{
										OFFSET 6.378677 0.000000 0.000000
										CHANNELS 3 Xrotation Yrotation Zrotation
										JOINT mixamorig:LeftHandMiddle3
										{
											OFFSET 6.148331 0.000000 0.000000
											CHANNELS 3 Xrotation Yrotation Zrotation
											JOINT mixamorig:LeftHandMiddle4
											{
												OFFSET 6.582504 0.000000 0.000000
												CHANNELS 3 Xrotation Yrotation Zrotation
												End Site
												{
													OFFSET -1.168900 6.395691 1.028606
												}
											}
										}
									}
								}
								JOINT mixamorig:LeftHandThumb1
								{
									OFFSET 7.235672 -3.848206 5.434273
									CHANNELS 3 Xrotation Yrotation Zrotation
									JOINT mixamorig:LeftHandThumb2
									{
										OFFSET 6.568451 -3.792297 3.792300
										CHANNELS 3 Xrotation Yrotation Zrotation
										JOINT mixamorig:LeftHandThumb3
										{
											OFFSET 6.063080 -3.500519 3.500518
											CHANNELS 3 Xrotation Yrotation Zrotation
											JOINT mixamorig:LeftHandThumb4
											{
												OFFSET 4.793182 -2.767334 2.767349
												CHANNELS 3 Xrotation Yrotation Zrotation
												End Site
												{
													OFFSET 0.101639 6.054260 1.275483
												}
											}
										}
									}
								}
								JOINT mixamorig:LeftHandIndex1
								{
									OFFSET 23.101074 -0.309540 4.992809
									CHANNELS 3 Xrotation Yrotation Zrotation
									JOINT mixamorig:LeftHandIndex2
									{
										OFFSET 6.226883 0.000000 0.000000
										CHANNELS 3 Xrotation Yrotation Zrotation
										JOINT mixamorig:LeftHandIndex3
										{
											OFFSET 6.094330 0.000000 0.000000
											CHANNELS 3 Xrotation Yrotation Zrotation
											JOINT mixamorig:LeftHandIndex4
											{
												OFFSET 5.482605 0.000000 0.000000
												CHANNELS 3 Xrotation Yrotation Zrotation
												End Site
												{
													OFFSET -1.427902 5.233032 0.797164
												}
											}
										}
									}
								}
								JOINT mixamorig:LeftHandRing1
								{
									OFFSET 22.299240 0.021149 -3.964172
									CHANNELS 3 Xrotation Yrotation Zrotation
									JOINT mixamorig:LeftHandRing2
									{
										OFFSET 6.321869 0.000000 0.000000
										CHANNELS 3 Xrotation Yrotation Zrotation
										JOINT mixamorig:LeftHandRing3
										{
											OFFSET 5.899796 0.000000 0.000000
											CHANNELS 3 Xrotation Yrotation Zrotation
											JOINT mixamorig:LeftHandRing4
											{
												OFFSET 6.517899 0.000000 0.000000
												CHANNELS 3 Xrotation Yrotation Zrotation
												End Site
												{
													OFFSET -1.637299 6.232208 0.980890
												}
											}
										}
									}
								}
								JOINT mixamorig:LeftHandPinky1
								{
									OFFSET 20.463791 -0.302338 -8.562233
									CHANNELS 3 Xrotation Yrotation Zrotation
									JOINT mixamorig:LeftHandPinky2
									{
										OFFSET 6.908646 0.000000 0.000000
										CHANNELS 3 Xrotation Yrotation Zrotation
										JOINT mixamorig:LeftHandPinky3
										{
											OFFSET 4.622849 0.000000 0.000000
											CHANNELS 3 Xrotation Yrotation Zrotation
											JOINT mixamorig:LeftHandPinky4
											{
												OFFSET 5.216080 0.000000 0.000000
												CHANNELS 3 Xrotation Yrotation Zrotation
												End Site
												{
													OFFSET -0.606308 5.116241 0.814926
												}
											}
										}
									}
								}
							}
						}
					}
				}
				JOINT mixamorig:RightShoulder
				{
					OFFSET -12.001300 18.284088 1.348900
					CHANNELS 3 Xrotation Yrotation Zrotation
					JOINT mixamorig:RightArm
					{
						OFFSET -25.308500 -0.751312 -5.164599
						CHANNELS 3 Xrotation Yrotation Zrotation
						JOINT mixamorig:RightForeArm
						{
							OFFSET -54.684429 0.000000 0.000000
							CHANNELS 3 Xrotation Yrotation Zrotation
							JOINT mixamorig:RightHand
							{
								OFFSET -55.150291 0.000000 0.000000
								CHANNELS 3 Xrotation Yrotation Zrotation
								JOINT mixamorig:RightHandMiddle1
								{
									OFFSET -23.317566 0.000000 0.000000
									CHANNELS 3 Xrotation Yrotation Zrotation
									JOINT mixamorig:RightHandMiddle2
									{
										OFFSET -6.378403 0.000000 0.000000
										CHANNELS 3 Xrotation Yrotation Zrotation
										JOINT mixamorig:RightHandMiddle3
										{
											OFFSET -6.148193 0.000000 0.000000
											CHANNELS 3 Xrotation Yrotation Zrotation
											JOINT mixamorig:RightHandMiddle4
											{
												OFFSET -6.583389 0.000000 0.000000
												CHANNELS 3 Xrotation Yrotation Zrotation
												End Site
												{
													OFFSET 1.171692 6.395905 1.029786
												}
											}
										}
									}
								}
								JOINT mixamorig:RightHandThumb1
								{
									OFFSET -7.190521 -3.860474 5.435846
									CHANNELS 3 Xrotation Yrotation Zrotation
									JOINT mixamorig:RightHandThumb2
									{
										OFFSET -6.567429 -3.791718 3.791708
										CHANNELS 3 Xrotation Yrotation Zrotation
										JOINT mixamorig:RightHandThumb3
										{
											OFFSET -6.062469 -3.500153 3.500166
											CHANNELS 3 Xrotation Yrotation Zrotation
											JOINT mixamorig:RightHandThumb4
											{
												OFFSET -4.792618 -2.767029 2.767022
												CHANNELS 3 Xrotation Yrotation Zrotation
												End Site
												{
													OFFSET -0.100327 6.053253 1.276754
												}
											}
										}
									}
								}
								JOINT mixamorig:RightHandIndex1
								{
									OFFSET -23.048981 -0.310791 4.992554
									CHANNELS 3 Xrotation Yrotation Zrotation
									JOINT mixamorig:RightHandIndex2
									{
										OFFSET -6.227539 0.000000 0.000000
										CHANNELS 3 Xrotation Yrotation Zrotation
										JOINT mixamorig:RightHandIndex3
										{
											OFFSET -6.095047 0.000000 0.000000
											CHANNELS 3 Xrotation Yrotation Zrotation
											JOINT mixamorig:RightHandIndex4
											{
												OFFSET -5.484772 0.000000 0.000000
												CHANNELS 3 Xrotation Yrotation Zrotation
												End Site
												{
													OFFSET 1.420593 5.237305 0.797056
												}
											}
										}
									}
								}
								JOINT mixamorig:RightHandRing1
								{
									OFFSET -22.246323 0.020569 -3.963762
									CHANNELS 3 Xrotation Yrotation Zrotation
									JOINT mixamorig:RightHandRing2
									{
										OFFSET -6.322128 0.000000 0.000000
										CHANNELS 3 Xrotation Yrotation Zrotation
										JOINT mixamorig:RightHandRing3
										{
											OFFSET -5.900024 0.000000 0.000000
											CHANNELS 3 Xrotation Yrotation Zrotation
											JOINT mixamorig:RightHandRing4
											{
												OFFSET -6.518356 0.000000 0.000000
												CHANNELS 3 Xrotation Yrotation Zrotation
												End Site
												{
													OFFSET 1.636398 6.232697 0.982186
												}
											}
										}
									}
								}
								JOINT mixamorig:RightHandPinky1
								{
									OFFSET -20.411011 -0.303314 -8.561701
									CHANNELS 3 Xrotation Yrotation Zrotation
									JOINT mixamorig:RightHandPinky2
									{
										OFFSET -6.907349 0.000000 0.000000
										CHANNELS 3 Xrotation Yrotation Zrotation
										JOINT mixamorig:RightHandPinky3
										{
											OFFSET -4.623840 0.000000 0.000000
											CHANNELS 3 Xrotation Yrotation Zrotation
											JOINT mixamorig:RightHandPinky4
											{
												OFFSET -5.218353 0.000000 0.000000
												CHANNELS 3 Xrotation Yrotation Zrotation
												End Site
												{
													OFFSET 0.602097 5.118835 0.816273
												}
											}
										}
									}
								}
							}
						}
					}
				}
			}
		}
	}
	JOINT mixamorig:LeftUpLeg
	{
		OFFSET 18.168400 -13.561905 -0.039000
		CHANNELS 3 Xrotation Yrotation Zrotation
		JOINT mixamorig:LeftLeg
		{
			OFFSET 0.577358 -80.825211 -3.695000
			CHANNELS 3 Xrotation Yrotation Zrotation
			JOINT mixamorig:LeftFoot
			{
				OFFSET -0.577356 -83.370262 -6.520700
				CHANNELS 3 Xrotation Yrotation Zrotation
				JOINT mixamorig:LeftToeBase
				{
					OFFSET 0.750401 -20.798306 25.135401
					CHANNELS 3 Xrotation Yrotation Zrotation
					JOINT mixamorig:LeftToe_End
					{
						OFFSET -0.000500 0.001200 19.917799
						CHANNELS 3 Xrotation Yrotation Zrotation
						End Site
						{
							OFFSET 0.000000 19.917805 0.000000
						}
					}
				}
			}
		}
	}
	JOINT mixamorig:RightUpLeg
	{
		OFFSET -18.162500 -13.585098 -0.041000
		CHANNELS 3 Xrotation Yrotation Zrotation
		JOINT mixamorig:RightLeg
		{
			OFFSET -0.595024 -80.945297 -3.631900
			CHANNELS 3 Xrotation Yrotation Zrotation
			JOINT mixamorig:RightFoot
			{
				OFFSET 0.595024 -83.218193 -6.561200
				CHANNELS 3 Xrotation Yrotation Zrotation
				JOINT mixamorig:RightToeBase
				{
					OFFSET -0.753601 -20.807106 25.115000
					CHANNELS 3 Xrotation Yrotation Zrotation
					JOINT mixamorig:RightToe_End
					{
						OFFSET 0.000299 0.001700 19.918200
						CHANNELS 3 Xrotation Yrotation Zrotation
						End Site
						{
							OFFSET 0.000000 19.918203 0.000000
						}
					}
				}
			}
		}
	}
}
MOTION
Frames: 6
Frame Time: 0.033333
-1.866112 186.617096 1.998030 -3.464827 -2.039159 -8.397023 -1.809768 2.000086 5.794368 3.396227 0.383483 0.445822 3.396051 0.366827 0.463372 -5.422047 -2.167277 -0.188152 -0.664151 7.967022 2.202531 0.000000 -0.000000 -0.000000 0.000000 -0.000000 -0.000000 0.000000 -0.000000 -0.000000 2.108416 -9.649345 -7.654196 -1.386685 47.022250 -74.541795 0.000029 -42.434572 0.000040 17.799785 -15.649439 51.244898 0.816163 7.781126 -5.866703 0.170695 1.526631 -12.758391 0.559578 2.723646 -23.216260 -0.000001 0.000002 -0.000004 -1.209208 15.239049 4.588390 10.714683 21.704092 -6.840578 4.529037 6.437940 -2.737603 0.000002 0.000001 0.000001 0.427874 -2.787181 11.508034 0.977710 3.541758 -30.855707 0.394567 2.301570 -19.453552 -0.000000 0.000002 0.000002 0.465302 6.197891 -4.154503 0.634067 2.890944 -24.737110 0.043421 0.773712 -6.425147 -0.000000 0.000001 0.000001 2.806763 9.983666 -17.002036 0.074295 -2.988524 -9.378541 0.874332 3.363033 -29.139257 0.000001 0.000003 0.000001 2.242883 14.394198 9.888375 -7.852818 -22.062669 63.589833 -0.000002 17.649012 -0.000010 26.762568 14.279487 -50.096719 11.993448 -12.114517 54.371379 1.372169 -4.152114 36.561644 -1.212277 -1.456114 10.048879 0.000001 0.000000 0.000002 -11.781460 -11.879731 -33.978808 28.519566 -29.631287 17.481649 -2.820163 5.586346 -2.482150 -0.000002 -0.000000 0.000001 0.815804 -3.370517 35.318092 2.220482 -5.097565 47.053023 1.858538 -4.736240 42.832109 0.000002 -0.000002 0.000001 8.636585 -15.703044 31.741487 2.088099 -4.971556 45.544487 -1.053832 -1.882039 13.149681 -0.000000 -0.000000 0.000001 9.113157 -19.978244 25.776265 1.223241 -3.943882 34.452205 0.624778 -2.885428 24.430398 0.000001 -0.000000 -0.000000 -56.495179 -5.623405 2.938283 112.075891 8.253893 0.448673 29.490797 4.915880 10.598256 -0.258171 -0.000001 -0.000003 -0.000000 -0.000000 0.000000 -10.125295 -8.815170 16.342367 35.875558 6.048066 1.428655 -19.458261 2.611625 -13.188418 -3.757002 -0.000001 -0.000003 0.000000 -0.000000 -0.000000 
-1.083675 188.102997 7.782743 -3.622370 -4.341341 -6.342046 -0.621688 4.742143 5.542461 3.415613 0.684340 -0.223284 3.418702 0.673355 -0.191424 -6.082199 -2.019671 -1.448394 -3.069579 6.599585 2.962748 -0.000001 0.000000 -0.000000 -0.000001 0.000000 -0.000000 -0.000001 0.000000 -0.000000 2.160981 -9.629775 -7.808446 -1.093711 50.695546 -71.625837 -0.000005 -42.058041 -0.000003 18.204653 -18.019487 52.854118 0.525480 8.176269 -3.311766 0.152018 1.441682 -12.037200 0.558529 2.721192 -23.194076 -0.000004 -0.000003 0.000003 -0.854847 15.521257 3.426937 10.662861 21.584701 -6.807086 4.416951 6.169035 -2.675930 -0.000001 0.000001 0.000001 0.512500 -2.866759 14.353559 1.004360 3.585915 -31.284578 0.397487 2.309800 -19.525995 0.000000 -0.000000 -0.000003 0.294765 6.421775 -2.333992 0.610187 2.838557 -24.258861 0.045519 0.792082 -6.578354 -0.000001 0.000001 -0.000003 2.586471 9.711420 -16.092144 0.064599 -3.048765 -8.873474 0.873976 3.362408 -29.133335 -0.000002 0.000001 0.000003 2.345064 16.216093 9.452278 -9.515929 -18.873237 65.643739 -0.000001 22.140135 0.000021 32.465604 13.307834 -49.125637 7.327326 -11.553698 38.462660 0.852344 -3.340715 28.618950 -0.869020 -0.953697 6.912577 0.000000 0.000000 -0.000001 -11.428864 -12.039236 -31.100344 28.763942 -29.995220 17.610640 -2.909458 5.827640 -2.469828 -0.000002 -0.000000 -0.000000 0.254266 -2.128252 25.949644 1.532199 -4.359000 38.717921 1.541435 -4.370496 38.839434 0.000001 -0.000000 -0.000001 5.064575 -14.070566 21.101953 1.626815 -4.474166 39.946587 -0.979273 -1.525374 10.822265 0.000002 -0.000000 0.000003 7.032007 -18.802710 21.232616 0.728064 -3.102460 26.407717 0.548015 -2.710310 22.857988 0.000001 0.000000 0.000001 -61.071542 -4.349407 0.666625 109.353746 8.260946 0.302659 30.154332 6.216007 9.387991 2.168445 0.000002 0.000003 -0.000000 0.000000 0.000000 -6.858517 -8.252285 14.363799 33.713882 8.848815 -0.307225 -20.135386 2.476007 -12.568690 -4.879762 0.000001 -0.000001 -0.000000 -0.000000 -0.000000 
-0.325064 189.962799 13.331450 -3.558498 -6.423591 -4.023556 1.124207 7.189622 4.923052 3.285250 0.952811 -0.950971 3.299217 0.942141 -0.911642 -6.848827 -1.911462 -2.761248 -5.696534 4.977608 3.837816 0.000000 0.000000 0.000000 0.000000 0.000000 0.000000 0.000000 0.000000 0.000000 2.230487 -9.687938 -7.973787 -1.614870 53.450537 -68.119724 -0.000001 -41.983957 -0.000006 15.929439 -19.684899 52.930892 0.343700 8.104536 -1.994771 0.148880 1.426909 -11.911934 0.557446 2.718646 -23.171039 0.000001 0.000001 0.000001 -0.715587 15.579885 2.848114 10.629771 21.507975 -6.785636 4.338422 5.978764 -2.632152 0.000000 0.000001 -0.000003 0.527349 -2.806495 16.002817 1.016178 3.605269 -31.473133 0.398267 2.311973 -19.545122 -0.000000 -0.000001 0.000001 0.207724 6.362378 -1.538624 0.604013 2.824880 -24.134294 0.046091 0.797041 -6.619715 0.000003 0.000001 0.000000 2.440110 9.557451 -15.398634 0.062126 -3.064703 -8.739961 0.870087 3.355418 -29.066813 0.000000 -0.000000 -0.000003 2.332477 17.485778 9.035430 -10.907243 -15.936249 67.171707 -0.000002 26.863827 0.000010 38.617644 12.392141 -48.129471 3.553292 -9.330298 24.055038 0.575255 -2.773938 23.427057 -0.351233 -0.618736 4.818862 -0.000003 0.000001 -0.000001 -10.946166 -12.532989 -28.112598 28.944880 -30.258978 17.705327 -2.998814 6.070810 -2.456358 0.000001 -0.000002 -0.000000 -0.011130 -1.057209 17.842735 1.023530 -3.636331 31.431568 1.282904 -4.029238 35.310162 -0.000003 0.000001 0.000001 2.391094 -11.410170 12.118046 1.303284 -4.057810 35.599407 -0.887348 -1.255389 9.045725 -0.000002 0.000003 -0.000000 5.176835 -17.585924 16.644413 0.366295 -2.231128 18.644267 0.477810 -2.537485 21.324368 0.000003 0.000000 0.000000 -63.329589 -2.858953 -1.181698 102.953586 8.810514 0.066630 31.256155 4.679925 8.546253 0.518226 0.000002 0.000006 -0.000001 -0.000000 -0.000000 -3.439452 -7.690557 11.898102 30.238388 8.901914 -1.885472 -20.262747 4.045847 -10.747692 -6.255570 0.000001 -0.000003 -0.000000 -0.000000 -0.000000 
0.385129 192.004501 18.568680 -3.235527 -8.195241 -1.643146 3.046313 9.162469 4.084886 3.026129 1.176238 -1.742451 3.056728 1.159902 -1.701358 -7.662598 -1.875165 -3.969614 -7.915475 3.202103 4.527058 0.000000 0.000000 -0.000000 0.000000 0.000000 -0.000000 0.000000 0.000000 -0.000000 2.333674 -9.919911 -8.145171 -3.160327 55.366579 -63.897273 -0.000003 -41.642779 0.000001 12.650207 -20.730507 53.184135 0.103187 7.794959 -0.285129 0.148604 1.425640 -11.901231 0.554537 2.711854 -23.109720 0.000001 -0.000001 0.000001 -0.509755 15.748833 2.425848 10.638695 21.528772 -6.791450 4.239368 5.737215 -2.576746 0.000001 0.000000 -0.000001 0.566996 -2.818234 18.497110 1.020949 3.613007 -31.548702 0.398560 2.312822 -19.552593 -0.000005 0.000000 0.000000 0.096375 6.181404 -0.537319 0.599489 2.814758 -24.042198 0.046248 0.798352 -6.630651 0.000001 -0.000001 0.000001 2.245775 9.311567 -14.518081 0.061306 -3.070041 -8.695240 0.865702 3.347546 -28.991916 -0.000005 -0.000000 0.000002 2.193467 17.996078 8.569738 -11.912663 -13.550699 68.537137 -0.000016 31.906392 0.000030 43.385153 11.362545 -47.603369 1.388900 -6.820325 12.666099 0.443881 -2.448911 20.544465 0.099160 -0.433079 3.600842 0.000004 0.000000 0.000001 -10.487601 -13.063912 -25.661769 29.141528 -30.542984 17.810915 -3.087366 6.311424 -2.442358 -0.000001 -0.000001 0.000002 -0.104944 -0.160682 11.328390 0.721205 -3.088604 26.280604 1.117081 -3.784854 32.877092 -0.000003 -0.000001 0.000000 0.879132 -8.726447 5.533073 1.116691 -3.784247 32.871235 -0.789312 -1.108032 8.099938 0.000003 -0.000000 0.000001 3.833328 -16.755169 12.748494 0.170263 -1.532333 12.680161 0.426590 -2.402307 20.135833 0.000001 -0.000002 -0.000001 -63.494326 -1.068346 -2.587444 93.452725 9.091501 -0.294478 32.066860 3.239379 7.453521 1.276320 0.000000 -0.000003 0.000001 0.000000 -0.000000 0.130107 -7.447473 9.044776 25.358662 8.953735 -2.863249 -19.633891 5.463734 -8.888325 -7.301785 0.000000 -0.000001 -0.000001 -0.000000 0.000000 
1.058604 194.197983 23.621128 -2.765014 -9.286896 0.737264 4.808451 10.579989 3.272946 2.778386 1.352953 -2.544945 2.827585 1.326164 -2.504625 -8.510714 -1.866741 -5.104268 -9.563044 1.468166 4.848392 0.000000 0.000000 0.000000 0.000000 0.000000 0.000000 0.000000 0.000000 0.000000 2.472866 -10.318098 -8.328412 -5.621782 56.724984 -59.251270 0.000003 -40.760185 0.000004 9.727164 -21.239863 54.354871 -0.214596 7.376567 2.121455 0.148257 1.423968 -11.887071 0.550534 2.702486 -23.025107 -0.000002 -0.000000 -0.000000 -0.190119 16.047869 1.924663 10.695761 21.660716 -6.828411 4.115851 5.433907 -2.507661 0.000000 0.000005 0.000002 0.617513 -2.872869 21.854966 1.024094 3.618123 -31.598644 0.398806 2.313514 -19.558706 0.000000 -0.000001 0.000000 -0.054784 6.017995 0.885790 0.596014 2.806967 -23.971343 0.046600 0.801354 -6.655747 -0.000002 -0.000000 0.000001 1.995920 8.979949 -13.334040 0.061415 -3.069279 -8.701610 0.860680 3.338470 -28.905764 -0.000003 -0.000002 0.000001 1.995396 18.027743 7.911196 -12.538412 -11.724557 69.961354 -0.000015 37.225795 0.000014 46.121426 10.074849 -47.508286 0.496107 -5.146256 5.654068 0.392831 -2.308215 19.314431 0.378112 -0.345177 2.994152 0.000001 0.000001 -0.000004 -10.190192 -13.442950 -24.256187 29.394610 -30.906951 17.949751 -3.174845 6.548691 -2.428465 0.000001 0.000000 -0.000000 -0.120502 0.561516 7.051162 0.582613 -2.790854 23.578696 1.033768 -3.653017 31.592726 0.000002 0.000000 -0.000002 0.244635 -6.861703 1.682989 1.027955 -3.643552 31.501184 -0.701406 -1.044168 7.726698 0.000001 -0.000001 0.000003 3.015931 -16.412448 10.030533 0.090998 -1.123540 9.260856 0.395864 -2.316843 19.389498 -0.000004 0.000004 -0.000002 -61.186528 0.407275 -4.468311 80.959557 9.290364 -0.843537 30.577063 3.125448 6.289449 2.646840 0.000001 0.000006 0.000003 0.000000 0.000001 3.791679 -7.661235 6.162328 19.547827 9.231468 -3.491025 -17.749273 6.396945 -7.042200 -8.493053 0.000001 0.000001 -0.000000 -0.000000 0.000000 
1.715302 196.086166 28.800409 -2.387213 -9.558847 2.854378 6.107016 11.282294 2.821965 2.707856 1.461602 -3.215879 2.773887 1.421146 -3.175900 -9.358197 -1.797256 -6.317629 -10.655560 0.016681 4.717292 -0.000001 0.000001 -0.000000 -0.000001 0.000001 -0.000000 -0.000001 0.000001 -0.000000 2.640019 -10.815598 -8.525097 -8.224400 57.512242 -55.157138 0.000008 -39.351858 -0.000007 6.794365 -21.086455 56.057890 -0.500969 6.920192 4.475349 0.147625 1.421034 -11.862127 0.546263 2.692410 -22.934232 -0.000003 -0.000000 -0.000001 0.153812 16.378478 1.457214 10.776559 21.846382 -6.880692 4.000368 5.148057 -2.443001 -0.000001 0.000001 0.000002 0.644289 -2.912992 24.815933 1.026685 3.622331 -31.639714 0.398663 2.313125 -19.555258 0.000001 -0.000001 0.000001 -0.215049 5.942256 2.407282 0.594083 2.802596 -23.931690 0.047275 0.807107 -6.703689 -0.000001 0.000001 0.000000 1.770621 8.780600 -12.006089 0.061982 -3.065646 -8.732058 0.855351 3.328819 -28.814102 -0.000001 -0.000002 0.000001 1.852630 17.909560 6.749332 -12.801915 -10.291733 71.464911 0.000015 42.391798 -0.000024 46.835464 9.009232 -47.379677 0.333060 -4.715003 4.024255 0.383106 -2.280311 19.071553 0.467588 -0.312843 2.752081 0.000000 -0.000002 -0.000001 -10.207374 -13.426490 -24.265849 29.645965 -31.265734 18.085876 -3.261654 6.783959 -2.414589 -0.000001 0.000002 -0.000000 -0.137733 0.967215 6.023414 0.550119 -2.715247 22.902220 0.996985 -3.592660 31.010589 0.000003 -0.000001 0.000000 0.128407 -6.218304 0.830235 0.991502 -3.583528 30.923036 -0.658623 -0.997945 7.430150 0.000002 -0.000001 0.000003 2.697923 -16.403953 8.855396 0.080701 -1.058436 8.719741 0.382641 -2.278986 19.059909 -0.000001 -0.000003 0.000002 -56.171404 1.192513 -7.082931 65.895152 9.276446 -1.114019 27.136917 2.845763 6.677609 3.992133 -0.000001 0.000001 -0.000000 0.000000 0.000000 5.994336 -8.306586 3.719654 16.439639 9.198215 -4.179658 -14.976800 6.886388 -5.768343 -10.204286 -0.000000 0.000002 -0.000000 -0.000000 0.000000 
